<svg xmlns="http://www.w3.org/2000/svg" width="48" height="48" viewBox="0 0 48 48">
  <path d="M37.9751226,11 L30.0091553,5 L30,5 L30,11 L28,11 L28,5 L10,5 L10,3 L31,3 L40,10 L40,43 L38,43 L38,13 L30,13 L30,11 L37.9751226,11 Z M15,25 L15,23 L33.0097656,23 L33.0097656,25 L15,25 Z M15,19 L15,17 L33.0097656,17 L33.0097656,19 L15,19 Z M15,31 L15,29 L33.0097656,29 L33.0097656,31 L15,31 Z M15,37 L15,35 L26.775616,35 L26.775616,37 L15,37 Z M10,45 L10,43 L38,43 L38,45 L10,45 Z M8,5 L10,5 L10,43 L8,43 L8,5 Z"/>
</svg>
