<svg xmlns="http://www.w3.org/2000/svg" width="48" height="48" viewBox="0 0 48 48">
  <path d="M37.9751226,11 L30.0091553,5 L30,5 L30,11 L28,11 L28,5 L10,5 L10,3 L31,3 L40,10 L40,43 L38,43 L38,13 L30,13 L30,11 L37.9751226,11 Z M10,45 L10,43 L38,43 L38,45 L10,45 Z M8,5 L10,5 L10,43 L8,43 L8,5 Z M19.5,24 C15.9101491,24 13,21.0898509 13,17.5 C13,13.9101491 15.9101491,11 19.5,11 C23.0898509,11 26,13.9101491 26,17.5 C26,21.0898509 23.0898509,24 19.5,24 Z M19.5,22 C21.9852814,22 24,19.9852814 24,17.5 C24,15.0147186 21.9852814,13 19.5,13 C17.0147186,13 15,15.0147186 15,17.5 C15,19.9852814 17.0147186,22 19.5,22 Z M19,37 L19,30 L16,30 L16,37 L19,37 Z M14,28 L21,28 L21,39 L14,39 L14,28 Z M27.118034,30 L32.881966,30 L30,24.236068 L27.118034,30 Z M36.118034,32 L23.881966,32 L30,19.763932 L36.118034,32 Z"/>
</svg>
