<svg xmlns="http://www.w3.org/2000/svg" width="48" height="48" viewBox="0 0 48 48">
  <path fill-rule="evenodd" d="M24,3 C12.40625,3 3,12.40625 3,24 C3,35.6046875 12.40625,45 24,45 C35.59375,45 45,35.6046875 45,24 C45,12.40625 35.59375,3 24,3 L24,3 Z M24,41.4453125 C14.3640625,41.4453125 6.5546875,33.6359375 6.5546875,24 C6.5546875,14.3640625 14.3640625,6.5546875 24,6.5546875 C33.6359375,6.5546875 41.4453125,14.3640625 41.4453125,24 C41.4453125,33.6359375 33.6359375,41.4453125 24,41.4453125 Z M29.5015625,22.9828125 C32.0609375,22.7421875 35.06875,22.665625 37.9453125,22.7203125 C37.69375,19.9421875 36.6328125,17.39375 34.9921875,15.3265625 C33.1875,16.95625 30.8359375,18.4 28.06875,19.5921875 C28.571875,20.6859375 29.0421875,21.8234375 29.5015625,22.9828125 Z M32.684375,13.01875 C30.3,11.1265625 27.28125,10 24,10 C23.4421875,10 22.884375,10.0328125 22.3375,10.0984375 C23.846875,12.034375 25.2578125,14.2109375 26.559375,16.60625 C28.9328125,15.6 31,14.3859375 32.684375,13.01875 Z M18.5203125,11.115625 C14.790625,12.7015625 11.88125,15.8625 10.6453125,19.7671875 C15.140625,19.690625 19.3515625,19.0015625 23.0484375,17.875 C21.6703125,15.359375 20.1390625,13.0953125 18.5203125,11.115625 Z M37.890625,25.771875 C35.4515625,25.70625 32.859375,25.75 30.5734375,25.9359375 C31.021875,27.28125 31.459375,28.659375 31.83125,30.08125 C32.246875,31.678125 32.596875,33.2640625 32.88125,34.828125 C35.571875,32.6078125 37.43125,29.403125 37.890625,25.771875 Z M24.21875,24.0109375 C24.6453125,23.8359375 25.18125,23.6828125 25.7828125,23.540625 C25.4109375,22.6328125 25.00625,21.746875 24.6015625,20.8828125 C20.325,22.2609375 15.3484375,23.103125 10.021875,23.2125 C10.0109375,23.475 10,23.7375 10,24.0109375 C10,27.19375 11.0609375,30.125 12.84375,32.4765625 C15.5671875,28.921875 19.5046875,25.990625 24.21875,24.0109375 Z M26.909375,26.428125 C26.1546875,26.5921875 25.4984375,26.778125 25.00625,27.0078125 C20.9484375,28.8453125 17.5359375,31.5578125 15.11875,34.828125 C17.5359375,36.81875 20.63125,38 24,38 C26.0234375,38 27.9375,37.5734375 29.665625,36.8078125 C29.3703125,35.15625 29.009375,33.49375 28.571875,31.809375 C28.090625,29.9609375 27.521875,28.15625 26.909375,26.428125 Z"/>
</svg>
