<svg xmlns="http://www.w3.org/2000/svg" width="48" height="48" viewBox="0 0 48 48">
  <path fill-rule="evenodd" d="M11.3629695,34.5643343 C11.5281983,34.4274676 11.7941032,34.528737 12.0078307,34.7266205 C12.226702,34.9799293 12.2814212,35.2838958 12.117269,35.3852213 C11.9531169,35.5372045 11.6248072,35.435879 11.4606551,35.233233 C11.2904996,35.0756914 11.2195553,34.8569131 11.2735329,34.6959139 C11.1510621,34.7968761 10.9411263,34.8080959 10.7638179,34.7003928 C10.5229476,34.55408 10.3422963,34.2614618 10.4627284,34.042 C10.5229476,33.8225308 10.8240371,33.7493818 11.0649014,33.8956945 C11.3057718,34.0420073 11.42621,34.3346255 11.3659909,34.55408 C11.3650431,34.5575345 11.3640356,34.5609527 11.3629695,34.5643343 Z M24.0173579,4 C35.6047396,4 45.0347019,13.3951749 44.999904,25.0173544 C44.999904,34.3081426 38.9800462,42.1722508 30.6287761,44.9560066 C29.5848678,45.1647878 29.2021016,44.5036452 29.2021016,43.9468946 C29.2021016,43.2509556 29.236896,40.9891531 29.236896,38.170602 C29.236896,36.1871755 28.5757539,34.9344869 27.8102216,34.2733447 C32.507809,33.7513906 37.4141802,31.9767478 37.4141802,23.9038538 C37.4141802,21.6072534 36.61385,19.7282205 35.2567713,18.2667482 C35.4655516,17.744794 36.1962895,15.5873816 35.0479875,12.6992383 C35.0479875,12.6992383 33.2733448,12.1424863 29.2716974,14.8566472 C27.6014448,14.4042888 25.7920007,14.1607107 24.0173579,14.1607107 C22.2427117,14.1607107 20.4332711,14.4042888 18.7630185,14.8566472 C14.7613676,12.1424863 12.9867248,12.6992383 12.9867248,12.6992383 C11.8384229,15.5873816 12.5691608,17.744794 12.7779411,18.2667482 C11.4556567,19.7282205 10.6205322,21.6072569 10.6205322,23.9038538 C10.6205322,31.9767478 15.5268999,33.7861884 20.1896929,34.2733447 C19.598143,34.7952989 19.041391,35.7348171 18.8674086,37.0918958 C17.6495144,37.6486478 14.6221796,38.5533681 12.7431467,35.3520509 C12.7431467,35.3520509 11.6296426,33.3338265 9.50702812,33.1946385 C9.50702812,33.1946385 7.45400935,33.1946385 9.36784011,34.482125 C9.36784011,34.482125 10.7597202,35.1084728 11.6992384,37.5442577 C11.6992384,37.5442577 12.9171291,41.3023269 18.7630185,40.0496384 C18.7630185,41.789485 18.7978129,43.4597369 18.7978129,43.9468946 C18.7978129,44.5036452 18.4150467,45.1647878 17.3711384,44.9560066 C9.01987183,42.1722508 3,34.3081426 3,25.0173579 C3,13.3951749 12.3951749,4 24.0173579,4 Z M12.8878525,36.5269731 C12.6863906,36.6611656 12.3841952,36.5269731 12.2331001,36.303328 C12.0316382,36.0796784 12.0316382,35.7665717 12.2331001,35.67711 C12.434562,35.5429221 12.7367523,35.67711 12.8878525,35.9007596 C13.0893093,36.1244092 13.0893093,36.3927851 12.8878525,36.5269731 Z M13.938032,37.6812998 C13.8122044,37.855794 13.5186012,37.8121693 13.2669461,37.5940506 C13.0572307,37.3759362 12.9733471,37.0705726 13.1411186,36.9396988 C13.2669461,36.7652046 13.5605451,36.8088293 13.8122044,37.026948 C14.0219156,37.2014377 14.0638595,37.5068057 13.938032,37.6812998 Z M15.4288924,38.3855628 C15.3910738,38.6437392 15.1263514,38.7470067 14.861629,38.6437392 C14.5969028,38.5404666 14.445636,38.2306538 14.4834508,38.0241188 C14.5212694,37.7659424 14.7859918,37.6626749 15.0507142,37.7659424 C15.3154405,37.869215 15.4667072,38.1273863 15.4288924,38.3855628 Z M17.1101891,38.4750868 C17.1101891,38.7409045 16.8893579,38.9535576 16.6317166,38.9535576 C16.3740789,38.9535576 16.1532477,38.7409045 16.1532477,38.4750868 C16.1532477,38.2092692 16.3740789,37.9966161 16.6317166,37.9966161 C16.8893542,37.9966161 17.1101891,38.2092692 17.1101891,38.4750868 Z M18.7363825,38.1555326 C18.774275,38.4158052 18.5848163,38.676083 18.3195802,38.7281396 C18.0543365,38.7801911 17.8269891,38.6240264 17.7890967,38.3637538 C17.7512079,38.103476 17.9406628,37.8431981 18.2059027,37.7911467 C18.4711426,37.7390849 18.6984938,37.8952547 18.7363825,38.1555326 Z"/>
</svg>
