<svg xmlns="http://www.w3.org/2000/svg" width="48" height="48" viewBox="0 0 48 48"><path d="M24 3.766c11.175 0 20.234 9.059 20.234 20.234 0 11.175-9.059 20.234-20.234 20.234-11.175 0-20.234-9.059-20.234-20.234C3.766 12.825 12.825 3.766 24 3.766zm-2 4.122C13.978 8.873 7.766 15.71 7.766 24c0 8.289 6.212 15.127 14.234 16.112zm4 32.224A16.176 16.176 0 0 0 35 35.941l-9-.001zm0-8.172h12.163c.468-.832.864-1.71 1.181-2.626L26 29.313v2.627zm0-6.627h14.182a16.455 16.455 0 0 0 0-2.627H26v2.627zm0-6.627h13.344a16.149 16.149 0 0 0-1.181-2.627H26v2.627zm0-10.798v4.17h8.998A16.176 16.176 0 0 0 26 7.888z"/></svg>