<svg xmlns="http://www.w3.org/2000/svg" width="48" height="48" viewBox="0 0 48 48">
  <path d="M13.51,10.69 L9.93,7.1 L7.1,9.93 L10.69,13.52 L13.51,10.69 Z M8,22 L2,22 L2,26 L8,26 L8,22 Z M26,2.1 L22,2.1 L22,8 L26,8 L26,2.1 Z M40.9,9.93 L38.07,7.1 L34.48,10.69 L37.31,13.52 L40.9,9.93 L40.9,9.93 Z M34.49,37.31 L38.08,40.9 L40.91,38.07 L37.32,34.48 L34.49,37.31 Z M40,22 L40,26 L46,26 L46,22 L40,22 Z M24,12 C17.37,12 12,17.37 12,24 C12,30.63 17.37,36 24,36 C30.63,36 36,30.63 36,24 C36,17.37 30.63,12 24,12 Z M22,45.9 L26,45.9 L26,40 L22,40 L22,45.9 Z M7.1,38.07 L9.93,40.9 L13.52,37.31 L10.69,34.48 L7.1,38.07 L7.1,38.07 Z"/>
</svg>
