<svg xmlns="http://www.w3.org/2000/svg" width="48" height="48" viewBox="0 0 48 48"><path d="M24 3.766C12.825 3.766 3.766 12.825 3.766 24c0 11.175 9.059 20.234 20.234 20.234 11.175 0 20.234-9.059 20.234-20.234 0-11.175-9.059-20.234-20.234-20.234zm2 4.122C34.022 8.873 40.234 15.71 40.234 24c0 8.289-6.212 15.127-14.234 16.112zm-4 32.224A16.176 16.176 0 0 1 13 35.941l9-.001zm0-8.172H9.837a16.149 16.149 0 0 1-1.181-2.626L22 29.313v2.627zm0-6.627H7.818a16.455 16.455 0 0 1 0-2.627H22v2.627zm0-6.627H8.656c.317-.915.713-1.794 1.181-2.627H22v2.627zm0-10.798v4.17h-8.998A16.176 16.176 0 0 1 22 7.888z"/></svg>